<?xml version="1.0" encoding="UTF-8"?>
<!DOCTYPE svg PUBLIC "-//W3C//DTD SVG 1.1//EN" "http://www.w3.org/Graphics/SVG/1.1/DTD/svg11.dtd">
<!-- Creator: CorelDRAW 2017 -->
<svg xmlns="http://www.w3.org/2000/svg" xml:space="preserve" width="3.23631in" height="0.642528in" version="1.1" style="shape-rendering:geometricPrecision; text-rendering:geometricPrecision; image-rendering:optimizeQuality; fill-rule:evenodd; clip-rule:evenodd"
viewBox="0 0 2563.99 509.05"
 xmlns:xlink="http://www.w3.org/1999/xlink">
 <defs>
  <style type="text/css">
   <![CDATA[
    .fil2 {fill:#006B99}
    .fil3 {fill:#008CC8}
    .fil1 {fill:white}
    .fil0 {fill:white;fill-rule:nonzero}
   ]]>
  </style>
 </defs>
 <g id="Layer_x0020_1">
  <metadata id="CorelCorpID_0Corel-Layer"/>
  <g id="_2204562972032">
   <path class="fil0" d="M568.99 428.53c0,-5.95 -1.09,-11.5 -3.26,-16.64 -2.17,-5.15 -5.24,-9.61 -9.22,-13.39 -3.98,-3.78 -8.72,-6.73 -14.23,-8.86 -5.51,-2.13 -11.56,-3.19 -18.15,-3.19l-31.48 0 0 84.42 31.48 0c6.59,0 12.64,-1.09 18.15,-3.26 5.51,-2.17 10.25,-5.15 14.23,-8.92 3.98,-3.78 7.06,-8.26 9.22,-13.45 2.17,-5.18 3.26,-10.75 3.26,-16.7zm-15.56 0.24c0,4.2 -0.7,8.06 -2.11,11.56 -1.41,3.52 -3.4,6.55 -5.93,9.08 -2.53,2.55 -5.63,4.52 -9.25,5.95 -3.64,1.41 -7.66,2.11 -12.1,2.11l-16.68 0 0 -57.64 16.68 0c4.44,0 8.46,0.72 12.1,2.17 3.62,1.47 6.71,3.48 9.25,6.07 2.53,2.57 4.52,5.63 5.93,9.15 1.41,3.5 2.11,7.36 2.11,11.56z"/>
   <polygon id="1" class="fil0" points="701.39,386.44 638.93,386.44 638.93,470.86 701.99,470.86 701.99,457.47 653.64,457.47 653.64,434.92 695.97,434.92 695.97,421.53 653.64,421.53 653.64,399.82 701.39,399.82 "/>
   <path id="2" class="fil0" d="M784.11 408.51c0,-2.81 1.21,-5.21 3.62,-7.17 2.41,-1.97 5.79,-2.95 10.13,-2.95 3.86,0 7.68,0.74 11.46,2.23 3.78,1.49 7.6,3.64 11.46,6.45l7.96 -11.21c-4.34,-3.46 -8.98,-6.09 -13.93,-7.9 -4.94,-1.81 -10.51,-2.71 -16.7,-2.71 -4.18,0 -8.04,0.58 -11.56,1.75 -3.54,1.17 -6.55,2.83 -9.07,5 -2.51,2.17 -4.48,4.77 -5.93,7.78 -1.43,3.02 -2.15,6.37 -2.15,10.07 0,3.94 0.62,7.27 1.87,10.01 1.25,2.73 3.08,5.06 5.45,6.99 2.37,1.93 5.32,3.54 8.82,4.83 3.52,1.29 7.52,2.45 12.04,3.5 3.94,0.96 7.14,1.89 9.61,2.77 2.45,0.89 4.38,1.83 5.81,2.84 1.41,1 2.37,2.11 2.89,3.32 0.52,1.2 0.78,2.57 0.78,4.1 0,3.3 -1.35,5.91 -4.04,7.84 -2.69,1.93 -6.33,2.89 -10.91,2.89 -5.31,0 -10.05,-0.94 -14.23,-2.83 -4.18,-1.89 -8.32,-4.6 -12.42,-8.14l-8.92 10.61c5.07,4.59 10.57,7.98 16.52,10.19 5.95,2.21 12.18,3.32 18.69,3.32 4.42,0 8.48,-0.56 12.18,-1.69 3.68,-1.13 6.85,-2.77 9.47,-4.94 2.63,-2.17 4.68,-4.82 6.17,-7.96 1.47,-3.13 2.21,-6.71 2.21,-10.73 0,-3.54 -0.58,-6.61 -1.75,-9.22 -1.17,-2.61 -2.89,-4.91 -5.14,-6.87 -2.25,-1.97 -5.11,-3.64 -8.52,-5.01 -3.42,-1.37 -7.35,-2.61 -11.78,-3.74 -4.04,-0.96 -7.35,-1.89 -9.99,-2.77 -2.61,-0.89 -4.66,-1.85 -6.17,-2.89 -1.49,-1.04 -2.51,-2.17 -3.08,-3.38 -0.56,-1.21 -0.85,-2.65 -0.85,-4.34z"/>
   <polygon id="3" class="fil0" points="938.82,422.74 973.91,386.44 955.7,386.44 915.55,428.89 915.55,386.44 900.83,386.44 900.83,470.86 915.55,470.86 915.55,446.37 928.69,432.87 957.51,470.86 975.48,470.86 "/>
   <polygon id="4" class="fil0" points="1074.72,400.19 1101.49,400.19 1101.49,386.44 1032.99,386.44 1032.99,400.19 1059.76,400.19 1059.76,470.86 1074.72,470.86 "/>
   <path id="5" class="fil0" d="M1249.08 428.53c0,-5.95 -1.09,-11.58 -3.25,-16.88 -2.17,-5.31 -5.19,-9.93 -9.05,-13.87 -3.86,-3.94 -8.48,-7.06 -13.87,-9.34 -5.39,-2.29 -11.34,-3.44 -17.85,-3.44 -6.51,0 -12.46,1.17 -17.85,3.5 -5.39,2.33 -10.05,5.49 -13.99,9.47 -3.94,3.98 -6.99,8.62 -9.16,13.93 -2.17,5.31 -3.26,10.93 -3.26,16.88 0,5.95 1.09,11.58 3.26,16.88 2.17,5.31 5.19,9.93 9.05,13.87 3.86,3.94 8.48,7.05 13.87,9.34 5.39,2.29 11.33,3.44 17.85,3.44 6.51,0 12.46,-1.17 17.85,-3.5 5.39,-2.33 10.05,-5.49 13.99,-9.47 3.94,-3.98 7,-8.62 9.17,-13.93 2.17,-5.31 3.25,-10.93 3.25,-16.88zm-15.56 0.24c0,4.1 -0.7,7.98 -2.11,11.64 -1.41,3.66 -3.36,6.83 -5.85,9.53 -2.49,2.69 -5.49,4.82 -8.98,6.39 -3.5,1.57 -7.34,2.35 -11.52,2.35 -4.18,0 -8.04,-0.8 -11.58,-2.41 -3.54,-1.61 -6.57,-3.78 -9.1,-6.51 -2.53,-2.73 -4.5,-5.93 -5.91,-9.59 -1.41,-3.66 -2.11,-7.54 -2.11,-11.64 0,-4.1 0.7,-7.98 2.11,-11.64 1.41,-3.66 3.36,-6.83 5.85,-9.53 2.49,-2.69 5.49,-4.83 8.99,-6.39 3.5,-1.57 7.34,-2.35 11.52,-2.35 4.18,0 8.04,0.8 11.58,2.41 3.54,1.61 6.57,3.78 9.1,6.51 2.53,2.73 4.5,5.93 5.91,9.59 1.41,3.66 2.11,7.54 2.11,11.64z"/>
   <path id="6" class="fil0" d="M1384.38 414.78c0,-4.34 -0.74,-8.24 -2.23,-11.7 -1.49,-3.46 -3.62,-6.43 -6.39,-8.92 -2.78,-2.49 -6.15,-4.4 -10.13,-5.73 -3.98,-1.33 -8.42,-1.99 -13.32,-1.99l-33.28 0 0 84.42 14.71 0 0 -27.13 16.8 0c4.68,0 9.06,-0.62 13.18,-1.87 4.1,-1.25 7.68,-3.08 10.75,-5.49 3.06,-2.41 5.47,-5.42 7.26,-9.04 1.77,-3.62 2.65,-7.8 2.65,-12.54zm-15.07 0.3c0,4.6 -1.63,8.3 -4.9,11.08 -3.26,2.79 -7.72,4.18 -13.37,4.18l-17.3 0 0 -30.51 17.3 0c5.57,0 10.01,1.27 13.31,3.82 3.32,2.53 4.96,6.35 4.96,11.43z"/>
   <g>
    <path class="fil0" d="M582.44 140.34l-93.97 0 0 209.82 96.97 0c11.54,0 22.13,-1.25 31.72,-3.75 9.54,-2.5 17.74,-6.19 24.53,-11.04 6.8,-4.9 11.99,-10.94 15.69,-18.14 3.7,-7.19 5.54,-15.44 5.54,-24.83 0,-7.19 -1,-13.54 -2.99,-18.98 -1.95,-5.5 -4.8,-10.24 -8.49,-14.24 -3.65,-4 -8.04,-7.45 -13.09,-10.34 -5.1,-2.85 -10.7,-5.39 -16.84,-7.6 3.75,-2 7.5,-4.39 11.14,-7.24 3.65,-2.8 6.85,-6.04 9.54,-9.74 2.65,-3.7 4.84,-8.04 6.49,-13.04 1.7,-5.04 2.55,-10.74 2.55,-17.13 0,-16.64 -6.19,-29.73 -18.54,-39.32 -12.39,-9.64 -29.13,-14.44 -50.26,-14.44zm-7.19 88.72l-50.21 0 0 -56.05 52.86 0c11.99,0 21.08,2.35 27.38,7.09 6.24,4.69 9.39,11.39 9.39,20.03 0,9.84 -3.6,17.13 -10.74,21.83 -7.2,4.75 -16.74,7.09 -28.68,7.09zm10.74 88.43l-60.95 0 0 -57.55 58.3 0c14.54,0 25.33,2.5 32.42,7.49 7.05,5 10.59,11.99 10.59,20.99 0,9.59 -3.6,16.83 -10.74,21.73 -7.19,4.9 -17.03,7.34 -29.63,7.34zm88.08 32.67l146.88 0 0 -33.27 -110.31 0 0 -176.55 -36.57 0 0 209.82zm549.25 -33.57l-23.68 -23.98c-8.99,8.39 -18.09,15.04 -27.28,19.93 -9.19,4.89 -20.18,7.34 -32.97,7.34 -9.99,0 -19.23,-1.95 -27.73,-5.85 -8.49,-3.9 -15.84,-9.24 -22.03,-16.04 -6.19,-6.79 -10.99,-14.73 -14.39,-23.83 -3.4,-9.09 -5.1,-18.84 -5.1,-29.23 0,-10.39 1.7,-20.08 5.1,-29.08 3.39,-8.99 8.19,-16.84 14.39,-23.53 6.2,-6.7 13.54,-11.99 22.03,-15.89 8.49,-3.9 17.74,-5.85 27.73,-5.85 11.99,0 22.68,2.4 32.07,7.2 9.39,4.8 18.28,11.09 26.68,18.88l23.68 -27.28c-5,-4.79 -10.29,-9.19 -15.89,-13.19 -5.6,-4 -11.69,-7.45 -18.28,-10.34 -6.6,-2.9 -13.84,-5.15 -21.73,-6.75 -7.89,-1.6 -16.64,-2.4 -26.23,-2.4 -15.99,0 -30.57,2.85 -43.76,8.54 -13.19,5.7 -24.58,13.49 -34.17,23.38 -9.59,9.89 -17.04,21.43 -22.33,34.62 -5.3,13.19 -7.94,27.28 -7.94,42.27 0,15.19 2.7,29.38 8.09,42.57 5.4,13.19 12.84,24.63 22.33,34.32 9.49,9.69 20.73,17.34 33.72,22.93 12.99,5.59 27.18,8.39 42.56,8.39 9.79,0 18.73,-0.85 26.83,-2.55 8.09,-1.7 15.54,-4.2 22.33,-7.5 6.8,-3.3 13.14,-7.19 19.04,-11.69 5.9,-4.49 11.54,-9.64 16.94,-15.44zm102.26 -86.03l87.23 -90.22 -45.26 0 -99.82 105.51 0 -105.51 -36.57 0 0 209.82 36.57 0 0 -60.85 32.67 -33.57 71.64 94.42 44.66 0 -91.13 -119.6zm261.74 -30.87l0 150.47 36.57 0 0 -209.82 -39.27 0 -63.85 99.22 -63.85 -99.22 -39.27 0 0 209.82 36.57 0 0 -149.87 65.65 98.32 1.2 0 66.25 -98.92zm168.21 -60.85l-34.17 0 -92.32 211.32 37.77 0 21.58 -50.66 99.22 0 21.28 50.66 38.97 0 -92.32 -211.32zm18.58 127.99l-72.24 0 35.97 -83.93 36.27 83.93zm256.94 83.33l-56.65 -79.43c7.39,-2 14.14,-4.85 20.23,-8.54 6.09,-3.7 11.34,-8.19 15.74,-13.49 4.4,-5.29 7.84,-11.39 10.34,-18.28 2.5,-6.9 3.75,-14.74 3.75,-23.53 0,-10.19 -1.8,-19.44 -5.4,-27.73 -3.6,-8.29 -8.74,-15.29 -15.44,-20.98 -6.7,-5.7 -14.89,-10.09 -24.58,-13.19 -9.69,-3.1 -20.53,-4.64 -32.52,-4.64l-93.52 0 0 209.82 36.57 0 0 -73.14 46.31 0 51.71 73.14 43.46 0zm-44.06 -141.33c0,10.84 -3.9,19.49 -11.74,25.88 -7.79,6.44 -18.34,9.64 -31.57,9.64l-54.1 0 0 -70.74 53.8 0c13.84,0 24.58,2.95 32.17,8.89 7.64,5.89 11.44,14.69 11.44,26.33zm146.33 21.73l87.23 -90.22 -45.26 0 -99.82 105.51 0 -105.51 -36.57 0 0 209.82 36.57 0 0 -60.85 32.67 -33.57 71.64 94.42 44.66 0 -91.13 -119.6zm247.35 -90.22l-155.27 0 0 209.82 156.77 0 0 -33.27 -120.2 0 0 -56.06 105.21 0 0 -33.27 -105.21 0 0 -53.95 118.7 0 0 -33.27zm116.79 34.17l66.55 0 0 -34.17 -170.26 0 0 34.17 66.55 0 0 175.65 37.17 0 0 -175.65z"/>
    <path class="fil1" d="M914.52 128.38c-6.16,1.08 -28.32,14.94 -35.41,18.87 -16.96,9.4 -34.95,19.99 -51.97,29.7 -13.3,7.58 -11.82,16.58 -11.82,29.02l0 67.71c0,22.41 -2.64,28.41 16.08,38.38 17.01,9.05 35.33,20.26 52.39,29.29 5.96,3.15 11.41,6.54 17.45,9.77 5.78,3.09 11.56,7.66 20.21,6.38 5.95,-0.88 13.37,-5.95 18.19,-8.68l52.2 -29.49c5.86,-3.32 11.49,-6.58 17.38,-9.85 3.31,-1.84 5.25,-3.46 7.38,-6.25 1.92,-2.51 3.41,-5.79 3.89,-9.68 0.5,-4.05 0.17,-73.69 0.17,-81.29 0,-12.77 2.14,-24.87 -8.28,-32.67l-60.11 -35.19c-5.83,-3.32 -11.43,-6.78 -17.18,-10.04 -6.31,-3.57 -11.06,-7.64 -20.57,-5.97zm1.15 37.91c-4.12,0.72 -18.94,10 -23.68,12.62 -11.34,6.29 -23.37,13.37 -34.76,19.87 -8.9,5.07 -7.91,11.09 -7.91,19.41l0 45.29c0,14.99 -1.77,19 10.75,25.67 11.38,6.06 23.63,13.55 35.04,19.59 3.98,2.11 7.63,4.37 11.67,6.53 3.87,2.06 7.73,5.12 13.52,4.27 3.98,-0.59 8.95,-3.98 12.17,-5.8l34.91 -19.72c3.92,-2.23 7.68,-4.4 11.62,-6.59 2.21,-1.23 3.52,-2.31 4.93,-4.18 1.28,-1.68 2.28,-3.87 2.6,-6.48 0.33,-2.71 0.11,-49.28 0.11,-54.37 0,-8.54 1.43,-16.63 -5.53,-21.85l-40.2 -23.54c-3.9,-2.22 -7.64,-4.53 -11.49,-6.72 -4.22,-2.39 -7.4,-5.11 -13.76,-4z"/>
   </g>
  </g>
  <path class="fil2" d="M172.91 79.49c10.07,-40.6 20.46,-97.41 -39.9,-74.03 -21.4,8.29 -38.2,21.86 -55.47,41.92 -22.52,26.14 -38.63,79.9 -47.88,113.89l-6.92 3.95c-25.3,14.42 -22.49,31.55 -22.49,55.2l0 128.79c0,42.63 -5.03,54.04 30.59,72.99 32.36,17.22 67.21,38.53 99.66,55.7 11.33,6 21.7,12.44 33.2,18.58 9.38,5 18.75,12.06 31.49,12.54l0 -436.89c-1.96,0.08 -4.03,0.31 -6.24,0.7 -3.33,0.58 -9.13,3.14 -16.03,6.66zm-124.96 71.26c7.09,-26.6 17.26,-63.14 25.35,-83.27 12.63,-31.49 24.01,-39.15 57.08,-52.22 33.65,-13.29 40.68,-12.16 37.22,15.86 -2.19,17.77 -7.09,37.86 -12.41,57.66l-0.12 0.46c-13.4,7.64 -26.87,15.83 -33.47,19.49 -23.99,13.3 -49.05,27.85 -73.64,42.02z"/>
  <path class="fil3" d="M195.18 72.13l0 436.89c2.21,0.08 4.52,-0.03 6.95,-0.39 11.32,-1.67 25.44,-11.32 34.61,-16.51l99.28 -56.08c11.15,-6.33 21.85,-12.52 33.04,-18.74 6.3,-3.5 9.99,-6.59 14.04,-11.9 3.64,-4.78 6.48,-11.02 7.39,-18.41 0.95,-7.72 0.32,-140.16 0.32,-154.62 0,-24.3 4.07,-47.3 -15.74,-62.14l-23.09 -13.52c-10.24,-35.26 -26.91,-86.54 -44.63,-99.2 -14.4,-10.3 -27.91,-13.1 -44.38,-5.69 -16.67,7.5 -25.75,20.13 -30.06,35.15l-4.85 -2.78c-10.53,-5.97 -18.79,-12.65 -32.88,-12.06zm138.88 74.09l-73.31 -42.93c-7.67,-4.37 -15.13,-8.87 -22.64,-13.28 1.15,-14.3 9.02,-20.27 27.62,-28.41 25.46,-11.13 34.49,-11.11 46.42,16.92 6.08,14.27 14.68,42.52 21.91,67.69z"/>
  <path class="fil1" d="M194.89 173.75c-10.18,1.78 -19.79,3.99 -28.71,6.56 -67.33,19.36 -81.62,60.01 -41.16,110.92 -110.82,-26.94 -50.25,-100.11 15.14,-121.1 16.3,-5.1 34.84,-8.72 54.73,-10.82 59.49,-6.27 131.06,1.11 190.96,23.17 1.13,2.12 2.03,4.33 2.75,6.62 -69.53,-22.51 -139.68,-24.83 -193.71,-15.35zm-164.51 248.36c-15.45,-8.27 -23.17,-15.12 -26.96,-23.8 58.28,21.53 124.89,28.3 175.79,14.72 5.5,-1.47 10.73,-3.06 15.68,-4.76 77.31,-26.62 86.67,-81.08 16.9,-135.29 41.43,-5.56 86.35,30.84 88.7,58.35 2.48,29.02 -25.2,69.27 -86.84,94.19 -6.17,1.96 -12.42,3.68 -18.76,5.18 -53.01,12.57 -111.3,9.35 -164.51,-8.6zm13.26 -110.86c44.76,38.38 141.4,45.28 91.56,-10 22.94,35.71 -43.7,28.34 -73.4,4.27 -58.64,-47.52 -21.03,-104.32 35.24,-126.6 -59.53,18.5 -118.16,76.8 -53.4,132.33zm151.25 -79.89l0 27.04c2.31,2.09 5.08,4.29 8.32,6.57 -44.99,-41.5 110.22,-43.8 140.22,51.37 9.8,31.09 -2.74,65.21 -56.34,89.27 66.62,-22.07 85.4,-57.85 77.55,-91.14 -7.36,-31.21 -37.8,-59.12 -71.14,-73.91 -35,-15.52 -79.4,-17.89 -98.62,-9.21z"/>
 </g>
</svg>
