<svg id="Layer_1" data-name="Layer 1" xmlns="http://www.w3.org/2000/svg" viewBox="0 0 16 16"><defs><style>.cls-1{fill:#4c4b4c;fill-rule:evenodd;}</style></defs><title>escrow_icon</title><path class="cls-1" d="M759.33,547.17h5a1,1,0,0,1,1,1v5a1,1,0,0,1-1,1h-5a1,1,0,0,1-1-1v-5A1,1,0,0,1,759.33,547.17Zm9,0h5a1,1,0,0,1,1,1v5a1,1,0,0,1-1,1h-5a1,1,0,0,1-1-1v-5A1,1,0,0,1,768.33,547.17Zm-9,9h5a1,1,0,0,1,1,1v5a1,1,0,0,1-1,1h-5a1,1,0,0,1-1-1v-5A1,1,0,0,1,759.33,556.17Zm9,0h5a1,1,0,0,1,1,1v5a1,1,0,0,1-1,1h-5a1,1,0,0,1-1-1v-5A1,1,0,0,1,768.33,556.17Zm-8-7h3v3h-3v-3Zm9,0h3v3h-3v-3Zm-9,9h3v3h-3v-3Zm9,0h3v3h-3v-3Z" transform="translate(-758.33 -547.17)"/></svg>