<svg id="Layer_1" data-name="Layer 1" xmlns="http://www.w3.org/2000/svg" viewBox="0 0 16 16"><defs><style>.cls-1{fill:#4c4b4c;fill-rule:evenodd;}</style></defs><title>marktplace_icon</title><path class="cls-1" d="M763.5,500.5h-8a1,1,0,0,1-1-1v-8a1,1,0,0,1,1-1h8a1,1,0,0,1,1,1v8A1,1,0,0,1,763.5,500.5Zm-1-8h-6v6h6v-6Z" transform="translate(-748.5 -490.5)"/><path class="cls-1" d="M757.5,506.5h-8a1,1,0,0,1-1-1v-8a1,1,0,0,1,1-1h3v2h-2v6h6v-2h2v3A1,1,0,0,1,757.5,506.5Z" transform="translate(-748.5 -490.5)"/></svg>