<svg id="Layer_1" data-name="Layer 1" xmlns="http://www.w3.org/2000/svg" viewBox="0 0 16 16"><defs><style>.cls-1{fill:#4c4b4c;fill-rule:evenodd;}</style></defs><title>sendrecv_icon</title><path class="cls-1" d="M448.75,384.75h-1v-10h-10v-1a1,1,0,0,1,1-1h10a1,1,0,0,1,1,1v10A1,1,0,0,1,448.75,384.75Zm-2-8v11a1,1,0,0,1-1,1h-11a1,1,0,0,1-1-1v-11a1,1,0,0,1,1-1h11A1,1,0,0,1,446.75,376.75Zm-2,1h-9v3h9v-3Zm0,5h-9v4h9v-4Zm-7-3h-1v-1h1v1Zm2,0h-1v-1h1v1Zm4,0h-3v-1h3v1Z" transform="translate(-433.75 -372.75)"/></svg>