<svg id="Layer_1" data-name="Layer 1" xmlns="http://www.w3.org/2000/svg" viewBox="0 0 15.33 15.33"><defs><style>.cls-1{fill:#4c4b4c;fill-rule:evenodd;}</style></defs><title>settings_icon</title><path class="cls-1" d="M8.45,2.11a5.57,5.57,0,0,1,.61.12L9.86,1.16A1,1,0,0,1,11,.76h0a1,1,0,0,1,.4,1.17l-0.3,1.28v0l0.23,0.19,0.23,0.21,1.24-.52A1,1,0,0,1,14,3.37h0a1,1,0,0,1-.24,1.22l-0.9,1,0,0a5.62,5.62,0,0,1,.2.58l1.33,0.16a1,1,0,0,1,.93.81h0a1,1,0,0,1-.81.93l-1.26.38h0a5.65,5.65,0,0,1-.12.61l1.07,0.81a1,1,0,0,1,.4,1.17h0a1,1,0,0,1-1.17.4l-1.28-.3h0l-0.19.23-0.21.23,0.53,1.23A1,1,0,0,1,12,14h0a1,1,0,0,1-1.22-.24l-1-.9,0,0a5.63,5.63,0,0,1-.59.2L9,14.39a1,1,0,0,1-.81.93h0a1,1,0,0,1-.93-0.81L6.89,13.25v0a5.63,5.63,0,0,1-.61-0.12L5.47,14.16a1,1,0,0,1-1.17.4h0a1,1,0,0,1-.4-1.17l0.3-1.28v0L4,11.88l-0.23-.21-1.24.53A1,1,0,0,1,1.29,12h0a1,1,0,0,1,.24-1.22l0.9-1,0,0a5.69,5.69,0,0,1-.2-0.59L0.94,9A1,1,0,0,1,0,8.19H0A1,1,0,0,1,.82,7.26l1.26-.37h0a5.63,5.63,0,0,1,.12-0.61L1.16,5.47a1,1,0,0,1-.4-1.17h0a1,1,0,0,1,1.17-.4L3.21,4.2h0L3.44,4l0.21-.23L3.13,2.51a1,1,0,0,1,.24-1.22h0a1,1,0,0,1,1.22.24l1,0.9,0,0a5.54,5.54,0,0,1,.58-0.2L6.32,0.93A1,1,0,0,1,7.13,0h0a1,1,0,0,1,.93.81L8.44,2.07v0h0ZM10,5a3.53,3.53,0,1,0,1.2,2.42A3.52,3.52,0,0,0,10,5Z"/></svg>